<?xml version="1.0" encoding="UTF-8"?>
<svg version="1.1" xmlns="http://www.w3.org/2000/svg" width="1600" height="1600">
<path d="M0 0 C3.51999175 1.49786883 6.60979813 2.94585316 9 6 C9 6.66 9 7.32 9 8 C9.99 8.33 10.98 8.66 12 9 C12 9.66 12 10.32 12 11 C12.99 11.33 13.98 11.66 15 12 C15 12.66 15 13.32 15 14 C15.66 14 16.32 14 17 14 C19.125 15.875 19.125 15.875 21 18 C21 18.66 21 19.32 21 20 C22.485 20.495 22.485 20.495 24 21 C26.1875 22.9375 26.1875 22.9375 28 25 C28 25.66 28 26.32 28 27 C28.66 27 29.32 27 30 27 C31.34919532 28.65385233 32.68133728 30.321702 34 32 C35.485 32.99 35.485 32.99 37 34 C37 34.66 37 35.32 37 36 C38.485 36.495 38.485 36.495 40 37 C41.34423339 38.65788785 42.67618483 40.32576317 44 42 C45.64639965 43.35827971 47.31295807 44.69254251 49 46 C51.3125 48.125 51.3125 48.125 53 50 C53 50.66 53 51.32 53 52 C54.485 52.495 54.485 52.495 56 53 C56 53.66 56 54.32 56 55 C56.66 55 57.32 55 58 55 C59.71230248 56.61974559 61.37163262 58.2958946 63 60 C64.36125 61.299375 64.36125 61.299375 65.75 62.625 C68 65 68 65 69 68 C69.99 68.33 70.98 68.66 72 69 C72 69.66 72 70.32 72 71 C72.99 71.33 73.98 71.66 75 72 C75 72.66 75 73.32 75 74 C75.556875 74.226875 76.11375 74.45375 76.6875 74.6875 C79.66159588 76.37550036 81.72008865 78.46676517 84 81 C84 81.66 84 82.32 84 83 C85.32 83.66 86.64 84.32 88 85 C88 85.66 88 86.32 88 87 C88.99 87.33 89.98 87.66 91 88 C91 88.66 91 89.32 91 90 C91.66 90 92.32 90 93 90 C95.125 91.875 95.125 91.875 97 94 C97 94.66 97 95.32 97 96 C97.99 96.33 98.98 96.66 100 97 C100 97.66 100 98.32 100 99 C100.598125 99.268125 101.19625 99.53625 101.8125 99.8125 C103.99847854 100.99917406 105.41332594 102.09599113 107 104 C107 104.66 107 105.32 107 106 C107.99 106.33 108.98 106.66 110 107 C110 107.66 110 108.32 110 109 C110.61875 109.2475 111.2375 109.495 111.875 109.75 C114.38710296 111.22770762 114.76107344 112.43955177 116 115 C116.99 115.33 117.98 115.66 119 116 C119 116.66 119 117.32 119 118 C120.32 118.66 121.64 119.32 123 120 C123 120.66 123 121.32 123 122 C123.99 122.33 124.98 122.66 126 123 C126 123.66 126 124.32 126 125 C126.99 125.33 127.98 125.66 129 126 C129 126.66 129 127.32 129 128 C129.99 128.33 130.98 128.66 132 129 C132 129.66 132 130.32 132 131 C132.99 131.33 133.98 131.66 135 132 C135 132.66 135 133.32 135 134 C135.59762146 134.27295898 136.19524292 134.54591797 136.81097412 134.82714844 C138.9384059 135.96699868 140.32540472 137.07214943 142.02441406 138.765625 C142.58469299 139.31959961 143.14497192 139.87357422 143.722229 140.44433594 C144.60996002 141.33813965 144.60996002 141.33813965 145.515625 142.25 C146.13145447 142.86391602 146.74728394 143.47783203 147.3817749 144.11035156 C148.67852646 145.40574483 149.97276657 146.70365644 151.26464844 148.00390625 C153.24975202 149.99975068 155.24533591 151.98466726 157.2421875 153.96875 C158.50064211 155.22852555 159.75847654 156.48892101 161.015625 157.75 C161.6155426 158.34586914 162.21546021 158.94173828 162.83355713 159.55566406 C167 163.77006753 167 163.77006753 167 166 C167.99 166.33 168.98 166.66 170 167 C170 167.66 170 168.32 170 169 C170.556875 169.226875 171.11375 169.45375 171.6875 169.6875 C174.66159588 171.37550036 176.72008865 173.46676517 179 176 C179 176.66 179 177.32 179 178 C179.598125 178.268125 180.19625 178.53625 180.8125 178.8125 C182.99847854 179.99917406 184.41332594 181.09599113 186 183 C186 183.66 186 184.32 186 185 C186.53109375 185.20625 187.0621875 185.4125 187.609375 185.625 C191.00773436 187.57961192 193.51055928 190.22123717 196.25 193 C196.80429687 193.5465625 197.35859375 194.093125 197.9296875 194.65625 C202 198.7466133 202 198.7466133 202 201 C202.66 201 203.32 201 204 201 C205.72755846 202.62741015 207.36187432 204.28568243 209 206 C210.19521562 207.20061163 211.39331935 208.3983526 212.59375 209.59375 C220.40625 217.40625 220.40625 217.40625 222.29492188 219.29516602 C223.6751885 220.67523501 225.05622584 222.05453317 226.4375 223.43359375 C228.64031743 225.63976914 230.83656869 227.8521475 233.03125 230.06640625 C234.52077687 231.56516028 236.01036157 233.06385685 237.5 234.5625 C238.24636719 235.31724609 238.99273438 236.07199219 239.76171875 236.84960938 C243.36960302 240.47345773 246.97956892 243.83238763 251 247 C252.22174871 248.32334943 253.41183563 249.6768972 254.5625 251.0625 C256.36235279 253.22814273 257.93647825 254.95350701 260.21484375 256.62109375 C260.80394531 257.07613281 261.39304687 257.53117187 262 258 C262 258.66 262 259.32 262 260 C262.66 260 263.32 260 264 260 C265.70884005 261.62339805 267.37446717 263.29319053 269 265 C269.66 265.66 270.32 266.32 271 267 C270.625 270.125 270.625 270.125 270 273 C269.34 273 268.68 273 268 273 C267.7525 273.61875 267.505 274.2375 267.25 274.875 C265.76259631 277.40358627 264.56321991 277.71839004 262 279 C261.56107422 279.89912109 261.56107422 279.89912109 261.11328125 280.81640625 C259.80993686 283.3727905 258.24830058 284.94762564 256.1875 286.9375 C255.47335937 287.63488281 254.75921875 288.33226562 254.0234375 289.05078125 C253.02183594 290.01564453 253.02183594 290.01564453 252 291 C249.32636103 293.61146132 246.86502185 296.16534824 244.5 299.0625 C242.16203314 301.80961107 239.80204949 303.75836041 237 306 C236.08406468 307.06639156 235.18846939 308.15054282 234.3125 309.25 C233.549375 310.1575 232.78625 311.065 232 312 C231.34 312 230.68 312 230 312 C229.73574219 312.59296875 229.47148438 313.1859375 229.19921875 313.796875 C227.95629575 316.08029054 226.69598354 317.47426723 224.8125 319.25 C222.0901532 321.84809031 219.7630183 324.54400785 217.4375 327.5 C214.45544932 330.96562647 214.45544932 330.96562647 210.6875 331.25 C207.60905921 329.81816707 207.23510108 329.04024881 206 326 C205.01 325.67 204.02 325.34 203 325 C203 324.34 203 323.68 203 323 C202.34 323 201.68 323 201 323 C199.66666667 321.33333333 198.33333333 319.66666667 197 318 C195.55581772 316.81256123 194.1105758 315.62619493 192.6484375 314.4609375 C190.02807232 312.13862333 187.84863603 309.45709573 185.61328125 306.76953125 C183.92720578 304.77730559 183.92720578 304.77730559 181 303 C181 302.34 181 301.68 181 301 C180.01 300.67 179.02 300.34 178 300 C178 299.34 178 298.68 178 298 C177.34 298 176.68 298 176 298 C174.51953125 296.4609375 174.51953125 296.4609375 172.8125 294.375 C170.49809626 291.64285119 168.20604369 289.20770582 165.4375 286.9375 C162.3894469 284.42814085 159.91379308 281.68734076 157.39453125 278.65625 C154.43871912 275.14570562 151.14952727 272.10759831 147.625 269.1875 C144.38533026 266.44945655 141.7000851 263.44087322 138.95703125 260.21484375 C135.18136004 255.94177872 131.0595381 252.00079881 127 248 C125.33211099 246.33455657 123.66527372 244.66805845 122 243 C121.2575 242.2575 120.515 241.515 119.75 240.75 C118.8425 239.8425 117.935 238.935 117 238 C116.23558594 237.25878906 115.47117187 236.51757812 114.68359375 235.75390625 C113.85988281 234.94824219 113.03617188 234.14257812 112.1875 233.3125 C111.39730469 232.54550781 110.60710937 231.77851562 109.79296875 230.98828125 C108 229 108 229 108 227 C107.44280273 226.76732422 106.88560547 226.53464844 106.31152344 226.29492188 C103.40076355 224.66430607 101.37818867 222.63760806 99.015625 220.28125 C98.08105469 219.34925781 97.14648438 218.41726563 96.18359375 217.45703125 C95.46212158 216.7292749 95.46212158 216.7292749 94.72607422 215.98681641 C93.24795152 214.49793661 91.75940089 213.02008349 90.26953125 211.54296875 C89.34011719 210.61097656 88.41070313 209.67898438 87.453125 208.71875 C86.59879883 207.86216797 85.74447266 207.00558594 84.86425781 206.12304688 C83 204 83 204 83 202 C82.11208771 201.59908142 82.11208771 201.59908142 81.20623779 201.19006348 C78.9663356 199.98184113 77.49571452 198.74923069 75.70019531 196.95898438 C75.07985413 196.34494751 74.45951294 195.73091064 73.82037354 195.0982666 C72.83421051 194.10603088 72.83421051 194.10603088 71.828125 193.09375 C71.1457074 192.41324585 70.46328979 191.7327417 69.76019287 191.03161621 C68.32220573 189.59498803 66.88673308 188.15583915 65.45361328 186.71435547 C63.25122972 184.50123571 61.03835067 182.29901528 58.82421875 180.09765625 C57.42904546 178.70116197 56.03449238 177.30404773 54.640625 175.90625 C53.97508606 175.24475952 53.30954712 174.58326904 52.62384033 173.9017334 C52.01610779 173.28769653 51.40837524 172.67365967 50.78222656 172.04101562 C50.24357971 171.50077759 49.70493286 170.96053955 49.14996338 170.40393066 C48 169 48 169 48 167 C47.43410156 166.76152344 46.86820313 166.52304687 46.28515625 166.27734375 C43.51290127 164.7277243 41.64733707 162.83964175 39.4375 160.5625 C38.67308594 159.78003906 37.90867187 158.99757813 37.12109375 158.19140625 C36.42113281 157.46824219 35.72117187 156.74507812 35 156 C34.41347656 155.45214844 33.82695313 154.90429688 33.22265625 154.33984375 C32 153 32 153 32 151 C31.1646875 150.6596875 31.1646875 150.6596875 30.3125 150.3125 C27.33840412 148.62449964 25.27991135 146.53323483 23 144 C23 143.34 23 142.68 23 142 C22.46890625 141.79375 21.9378125 141.5875 21.390625 141.375 C17.99226564 139.42038808 15.48944072 136.77876283 12.75 134 C12.19570313 133.4534375 11.64140625 132.906875 11.0703125 132.34375 C7 128.2533867 7 128.2533867 7 126 C5.515 125.505 5.515 125.505 4 125 C4 124.34 4 123.68 4 123 C3.43796875 122.7628125 2.8759375 122.525625 2.296875 122.28125 C-0.51894042 120.71052303 -2.47955416 118.78528536 -4.75 116.5 C-5.54921875 115.7059375 -6.3484375 114.911875 -7.171875 114.09375 C-9 112 -9 112 -9 110 C-9.99 109.67 -10.98 109.34 -12 109 C-12 108.34 -12 107.68 -12 107 C-12.79664063 106.690625 -12.79664063 106.690625 -13.609375 106.375 C-17.00773436 104.42038808 -19.51055928 101.77876283 -22.25 99 C-22.80429687 98.4534375 -23.35859375 97.906875 -23.9296875 97.34375 C-28 93.2533867 -28 93.2533867 -28 91 C-28.5458374 90.78085937 -29.0916748 90.56171875 -29.65405273 90.3359375 C-32.76337569 88.5652834 -35.0609428 86.16650183 -37.53515625 83.625 C-38.05508652 83.09986816 -38.57501678 82.57473633 -39.11070251 82.03369141 C-40.76614218 80.36049108 -42.41472431 78.68074565 -44.0625 77 C-45.7147001 75.32013896 -47.36835341 73.64177601 -49.02500916 71.96630859 C-50.05398384 70.92512379 -51.08027353 69.88127689 -52.10353088 68.83447266 C-54.31488945 66.59221249 -56.36627497 64.75581669 -59 63 C-59.6875 60.3125 -59.6875 60.3125 -59 57 C-56.12052021 53.72569792 -52.86326979 50.82963107 -48.859375 49.046875 C-46.46844736 47.70072247 -46.21732377 46.44737218 -45 44 C-43.05677116 41.91697052 -41.10504868 39.91690211 -39.0625 37.9375 C-38.52431641 37.40833984 -37.98613281 36.87917969 -37.43164062 36.33398438 C-35.95794792 34.8857315 -34.47917546 33.44265261 -33 32 C-32.48751709 31.44771729 -31.97503418 30.89543457 -31.44702148 30.32641602 C-30 29 -30 29 -28 29 C-27.67 28.01 -27.34 27.02 -27 26 C-26.34 26 -25.68 26 -25 26 C-24.34 24.68 -23.68 23.36 -23 22 C-22.34 22 -21.68 22 -21 22 C-20.773125 21.443125 -20.54625 20.88625 -20.3125 20.3125 C-18.62449964 17.33840412 -16.53323483 15.27991135 -14 13 C-13.34 13 -12.68 13 -12 13 C-11.67 12.01 -11.34 11.02 -11 10 C-10.34 10 -9.68 10 -9 10 C-8.773125 9.443125 -8.54625 8.88625 -8.3125 8.3125 C-6.31914835 4.80040423 -3.63880251 1.81940125 0 0 Z " fill="#1B6B77" transform="translate(789,499)"/>
<path d="M0 0 C2.6875 1.5625 2.6875 1.5625 3.375 3.625 C3.478125 4.264375 3.58125 4.90375 3.6875 5.5625 C4.6775 5.8925 5.6675 6.2225 6.6875 6.5625 C6.6875 7.2225 6.6875 7.8825 6.6875 8.5625 C7.6775 8.8925 8.6675 9.2225 9.6875 9.5625 C9.6875 10.2225 9.6875 10.8825 9.6875 11.5625 C10.6775 11.8925 11.6675 12.2225 12.6875 12.5625 C12.6875 13.2225 12.6875 13.8825 12.6875 14.5625 C13.6775 14.8925 14.6675 15.2225 15.6875 15.5625 C15.6875 16.2225 15.6875 16.8825 15.6875 17.5625 C16.6775 17.8925 17.6675 18.2225 18.6875 18.5625 C18.6875 19.2225 18.6875 19.8825 18.6875 20.5625 C19.3475 20.5625 20.0075 20.5625 20.6875 20.5625 C23.3125 22.9375 23.3125 22.9375 25.6875 25.5625 C25.6875 26.2225 25.6875 26.8825 25.6875 27.5625 C26.3475 27.5625 27.0075 27.5625 27.6875 27.5625 C29.03669532 29.21635233 30.36883728 30.884202 31.6875 32.5625 C32.6775 33.2225 33.6675 33.8825 34.6875 34.5625 C34.6875 35.2225 34.6875 35.8825 34.6875 36.5625 C35.6775 36.8925 36.6675 37.2225 37.6875 37.5625 C39.04136936 39.21252828 40.37428142 40.8799387 41.6875 42.5625 C42.6775 43.2225 43.6675 43.8825 44.6875 44.5625 C44.6875 45.2225 44.6875 45.8825 44.6875 46.5625 C45.6775 46.8925 46.6675 47.2225 47.6875 47.5625 C47.6875 48.2225 47.6875 48.8825 47.6875 49.5625 C48.615625 49.93375 48.615625 49.93375 49.5625 50.3125 C52.07460296 51.79020762 52.44857344 53.00205177 53.6875 55.5625 C54.6775 55.8925 55.6675 56.2225 56.6875 56.5625 C56.6875 57.2225 56.6875 57.8825 56.6875 58.5625 C57.285625 58.830625 57.88375 59.09875 58.5 59.375 C60.68597854 60.56167406 62.10082594 61.65849113 63.6875 63.5625 C63.6875 64.2225 63.6875 64.8825 63.6875 65.5625 C64.3475 65.5625 65.0075 65.5625 65.6875 65.5625 C67.8125 67.4375 67.8125 67.4375 69.6875 69.5625 C69.6875 70.2225 69.6875 70.8825 69.6875 71.5625 C70.6775 71.8925 71.6675 72.2225 72.6875 72.5625 C72.6875 73.2225 72.6875 73.8825 72.6875 74.5625 C73.244375 74.789375 73.80125 75.01625 74.375 75.25 C77.34909588 76.93800036 79.40758865 79.02926517 81.6875 81.5625 C81.6875 82.2225 81.6875 82.8825 81.6875 83.5625 C83.0075 84.2225 84.3275 84.8825 85.6875 85.5625 C85.6875 86.2225 85.6875 86.8825 85.6875 87.5625 C86.6775 87.8925 87.6675 88.2225 88.6875 88.5625 C88.6875 89.2225 88.6875 89.8825 88.6875 90.5625 C89.6775 90.8925 90.6675 91.2225 91.6875 91.5625 C91.6875 92.2225 91.6875 92.8825 91.6875 93.5625 C92.30625 93.81 92.925 94.0575 93.5625 94.3125 C96.09108627 95.79990369 96.40589004 96.99928009 97.6875 99.5625 C99.62080603 100.65416275 99.62080603 100.65416275 101.6875 101.5625 C103.4375 103.0625 103.4375 103.0625 104.6875 104.5625 C104.6875 105.2225 104.6875 105.8825 104.6875 106.5625 C105.6775 106.8925 106.6675 107.2225 107.6875 107.5625 C107.6875 108.2225 107.6875 108.8825 107.6875 109.5625 C108.30625 109.81 108.925 110.0575 109.5625 110.3125 C112.07460296 111.79020762 112.44857344 113.00205177 113.6875 115.5625 C114.6775 115.8925 115.6675 116.2225 116.6875 116.5625 C116.6875 117.2225 116.6875 117.8825 116.6875 118.5625 C117.285625 118.830625 117.88375 119.09875 118.5 119.375 C120.68597854 120.56167406 122.10082594 121.65849113 123.6875 123.5625 C123.6875 124.2225 123.6875 124.8825 123.6875 125.5625 C124.244375 125.789375 124.80125 126.01625 125.375 126.25 C128.34909588 127.93800036 130.40758865 130.02926517 132.6875 132.5625 C132.6875 133.2225 132.6875 133.8825 132.6875 134.5625 C133.22890625 134.78035156 133.7703125 134.99820313 134.328125 135.22265625 C137.49255765 137.01967678 139.89360546 139.43941323 142.4375 142 C142.94410156 142.49048828 143.45070313 142.98097656 143.97265625 143.48632812 C145.2734308 144.78534961 146.48738368 146.16995123 147.6875 147.5625 C147.6875 148.5525 147.6875 149.5425 147.6875 150.5625 C147.0275 150.5625 146.3675 150.5625 145.6875 150.5625 C145.46835937 151.11035156 145.24921875 151.65820312 145.0234375 152.22265625 C143.26085876 155.30974592 140.85781001 157.56521003 138.3125 160 C135.52120576 162.69053897 132.85560698 165.34750002 130.4609375 168.41015625 C129.87570312 169.12042969 129.29046875 169.83070313 128.6875 170.5625 C128.0275 170.5625 127.3675 170.5625 126.6875 170.5625 C126.3575 171.5525 126.0275 172.5425 125.6875 173.5625 C125.0275 173.5625 124.3675 173.5625 123.6875 173.5625 C123.3575 174.5525 123.0275 175.5425 122.6875 176.5625 C122.0275 176.5625 121.3675 176.5625 120.6875 176.5625 C120.419375 177.160625 120.15125 177.75875 119.875 178.375 C118.68832594 180.56097854 117.59150887 181.97582594 115.6875 183.5625 C115.0275 183.5625 114.3675 183.5625 113.6875 183.5625 C113.3575 184.5525 113.0275 185.5425 112.6875 186.5625 C112.0275 186.5625 111.3675 186.5625 110.6875 186.5625 C110.4296875 187.14902344 110.171875 187.73554687 109.90625 188.33984375 C108.59243528 190.73587123 107.1656599 192.25161552 105.1875 194.125 C102.96653267 196.23774223 101.41007583 197.97863626 99.6875 200.5625 C99.0275 200.5625 98.3675 200.5625 97.6875 200.5625 C97.3575 201.5525 97.0275 202.5425 96.6875 203.5625 C96.0275 203.5625 95.3675 203.5625 94.6875 203.5625 C94.39875 204.18125 94.11 204.8 93.8125 205.4375 C92.6875 207.5625 92.6875 207.5625 90.6875 209.5625 C88.0625 209.6875 88.0625 209.6875 85.6875 209.5625 C85.0275 208.2425 84.3675 206.9225 83.6875 205.5625 C83.0275 205.5625 82.3675 205.5625 81.6875 205.5625 C80.3125 204.1640625 80.3125 204.1640625 78.6875 202.1875 C74.92527988 197.73328591 70.82691718 193.70566468 66.62890625 189.6640625 C64.6875 187.5625 64.6875 187.5625 64.6875 185.5625 C64.130625 185.335625 63.57375 185.10875 63 184.875 C60.05026727 183.20082737 58.0501116 180.98417689 55.6875 178.5625 C54.924375 178.005625 54.16125 177.44875 53.375 176.875 C52.818125 176.441875 52.26125 176.00875 51.6875 175.5625 C51.6875 174.9025 51.6875 174.2425 51.6875 173.5625 C51.0275 173.5625 50.3675 173.5625 49.6875 173.5625 C48.24658203 172.10253906 48.24658203 172.10253906 46.5703125 170.078125 C42.76705406 165.60717904 38.72316636 161.4495709 34.5625 157.3125 C33.87285156 156.61898437 33.18320312 155.92546875 32.47265625 155.2109375 C29.01625507 151.76114512 25.52033997 148.59515057 21.6875 145.5625 C20.48586166 144.28194049 19.31667536 142.96989047 18.1875 141.625 C15.49908867 138.43568184 12.65693554 135.49292106 9.6875 132.5625 C8.64899117 131.52548854 7.61126207 130.48769577 6.57421875 129.44921875 C6.04892578 128.92392578 5.52363281 128.39863281 4.98242188 127.85742188 C2.55078125 125.42578125 0.11914063 122.99414063 -2.3125 120.5625 C-6.82622296 124.27378332 -11.05037154 128.19156119 -15.1875 132.3125 C-15.67581299 132.79630127 -16.16412598 133.28010254 -16.66723633 133.77856445 C-19.323026 136.41952524 -19.323026 136.41952524 -21.3125 139.5625 C-21.9725 139.5625 -22.6325 139.5625 -23.3125 139.5625 C-23.3125 140.2225 -23.3125 140.8825 -23.3125 141.5625 C-23.9725 141.5625 -24.6325 141.5625 -25.3125 141.5625 C-25.6425 142.5525 -25.9725 143.5425 -26.3125 144.5625 C-26.9725 144.5625 -27.6325 144.5625 -28.3125 144.5625 C-28.6425 145.5525 -28.9725 146.5425 -29.3125 147.5625 C-29.9725 147.5625 -30.6325 147.5625 -31.3125 147.5625 C-31.6425 148.5525 -31.9725 149.5425 -32.3125 150.5625 C-33.75 152.25 -33.75 152.25 -35.3125 153.5625 C-35.9725 153.5625 -36.6325 153.5625 -37.3125 153.5625 C-37.580625 154.160625 -37.84875 154.75875 -38.125 155.375 C-39.31167406 157.56097854 -40.40849113 158.97582594 -42.3125 160.5625 C-42.9725 160.5625 -43.6325 160.5625 -44.3125 160.5625 C-44.539375 161.119375 -44.76625 161.67625 -45 162.25 C-46.68800036 165.22409588 -48.77926517 167.28258865 -51.3125 169.5625 C-51.9725 169.5625 -52.6325 169.5625 -53.3125 169.5625 C-53.56990967 170.14588135 -53.82731934 170.7292627 -54.0925293 171.33032227 C-55.41783245 173.75522655 -56.86477211 175.34289329 -58.83203125 177.27734375 C-59.87133789 178.30698242 -59.87133789 178.30698242 -60.93164062 179.35742188 C-61.65544922 180.06447266 -62.37925781 180.77152344 -63.125 181.5 C-64.19331055 182.55477539 -64.19331055 182.55477539 -65.28320312 183.63085938 C-67.28972823 185.61139803 -69.300588 187.5874362 -71.3125 189.5625 C-74.31024826 192.5182041 -77.1949456 195.49411474 -79.9375 198.6875 C-84.34294989 203.81057974 -84.34294989 203.81057974 -86.3125 205.5625 C-86.9725 205.5625 -87.6325 205.5625 -88.3125 205.5625 C-88.60125 206.18125 -88.89 206.8 -89.1875 207.4375 C-90.3125 209.5625 -90.3125 209.5625 -92.3125 211.5625 C-95.4375 211.1875 -95.4375 211.1875 -98.3125 210.5625 C-98.6425 209.5725 -98.9725 208.5825 -99.3125 207.5625 C-100.3025 207.2325 -101.2925 206.9025 -102.3125 206.5625 C-106.3125 202.10535714 -106.3125 202.10535714 -106.3125 199.5625 C-107.3025 199.2325 -108.2925 198.9025 -109.3125 198.5625 C-109.3125 197.9025 -109.3125 197.2425 -109.3125 196.5625 C-109.9725 196.5625 -110.6325 196.5625 -111.3125 196.5625 C-113.4375 194.6875 -113.4375 194.6875 -115.3125 192.5625 C-115.3125 191.9025 -115.3125 191.2425 -115.3125 190.5625 C-115.9725 190.5625 -116.6325 190.5625 -117.3125 190.5625 C-118.8984375 188.953125 -118.8984375 188.953125 -120.6875 186.8125 C-122.65007727 184.49346298 -124.5713295 182.31030716 -126.75 180.1875 C-128.3125 178.5625 -128.3125 178.5625 -128.3125 176.5625 C-129.3025 176.2325 -130.2925 175.9025 -131.3125 175.5625 C-131.3125 174.9025 -131.3125 174.2425 -131.3125 173.5625 C-132.3025 173.2325 -133.2925 172.9025 -134.3125 172.5625 C-134.3125 171.9025 -134.3125 171.2425 -134.3125 170.5625 C-134.9725 170.5625 -135.6325 170.5625 -136.3125 170.5625 C-138.4375 168.6875 -138.4375 168.6875 -140.3125 166.5625 C-140.3125 165.9025 -140.3125 165.2425 -140.3125 164.5625 C-141.3025 164.2325 -142.2925 163.9025 -143.3125 163.5625 C-144.65673339 161.90461215 -145.98868483 160.23673683 -147.3125 158.5625 C-148.199375 157.9025 -149.08625 157.2425 -150 156.5625 C-152.3125 154.5625 -152.3125 154.5625 -153.4375 152.125 C-153.3125 149.5625 -153.3125 149.5625 -151.1875 147.125 C-150.23875 146.279375 -149.29 145.43375 -148.3125 144.5625 C-147.508125 143.5725 -146.70375 142.5825 -145.875 141.5625 C-143.25070239 138.49015158 -140.41555001 136.13737128 -137.3125 133.5625 C-136.631875 132.675625 -135.95125 131.78875 -135.25 130.875 C-133.06157044 128.26300342 -131.41582425 127.78749641 -128.3125 126.5625 C-127.61774065 125.24358693 -126.95490667 123.90768991 -126.3125 122.5625 C-125.35369966 121.28062563 -124.35256043 120.0293707 -123.3125 118.8125 C-122.796875 118.19890625 -122.28125 117.5853125 -121.75 116.953125 C-120.3125 115.5625 -120.3125 115.5625 -118.3125 115.5625 C-117.8175 114.0775 -117.8175 114.0775 -117.3125 112.5625 C-115.65461215 111.21826661 -113.98673683 109.88631517 -112.3125 108.5625 C-111.6525 107.7375 -110.9925 106.9125 -110.3125 106.0625 C-108.20208279 103.42447849 -105.96927358 101.63607938 -103.3125 99.5625 C-100.45083918 96.84759102 -97.83803788 94.02289445 -95.3125 91 C-92.8826208 88.11646049 -90.26746534 85.91131861 -87.3125 83.5625 C-86.4875 82.5725 -85.6625 81.5825 -84.8125 80.5625 C-82.4818574 77.76572888 -80.14500375 75.81397734 -77.3125 73.5625 C-76.6525 72.7375 -75.9925 71.9125 -75.3125 71.0625 C-73.20930365 68.43350457 -70.93350457 66.65930365 -68.3125 64.5625 C-67.714375 63.799375 -67.11625 63.03625 -66.5 62.25 C-64.56453427 59.8721421 -62.69718972 58.09929613 -60.375 56.125 C-57.901148 54.01561975 -55.90937631 52.07875157 -53.8125 49.5625 C-51.18556285 46.41017542 -48.34623835 43.94108062 -45.23046875 41.29296875 C-43.5071154 39.73808987 -42.06989532 38.18453767 -40.625 36.375 C-38.3903087 33.65713221 -36.07687182 31.71256697 -33.3125 29.5625 C-32.9825 28.9025 -32.6525 28.2425 -32.3125 27.5625 C-31.6525 27.5625 -30.9925 27.5625 -30.3125 27.5625 C-29.6525 26.2425 -28.9925 24.9225 -28.3125 23.5625 C-27.6525 23.5625 -26.9925 23.5625 -26.3125 23.5625 C-25.8175 22.0775 -25.8175 22.0775 -25.3125 20.5625 C-24.6525 20.5625 -23.9925 20.5625 -23.3125 20.5625 C-22.9825 19.5725 -22.6525 18.5825 -22.3125 17.5625 C-21.6525 17.5625 -20.9925 17.5625 -20.3125 17.5625 C-19.9825 16.5725 -19.6525 15.5825 -19.3125 14.5625 C-18.6525 14.5625 -17.9925 14.5625 -17.3125 14.5625 C-16.9825 13.5725 -16.6525 12.5825 -16.3125 11.5625 C-15.6525 11.5625 -14.9925 11.5625 -14.3125 11.5625 C-13.9825 10.5725 -13.6525 9.5825 -13.3125 8.5625 C-12.6525 8.5625 -11.9925 8.5625 -11.3125 8.5625 C-11.10625 8.005625 -10.9 7.44875 -10.6875 6.875 C-8.06203044 2.45943755 -5.32562321 -0.7033842 0 0 Z " fill="#BBAD89" transform="translate(674.3125,618.4375)"/>
<path d="M0 0 C0.99 0.495 0.99 0.495 2 1 C1.34 1.99 0.68 2.98 0 4 C-0.66 4 -1.32 4 -2 4 C-2.33 4.99 -2.66 5.98 -3 7 C-4.62514722 8.72914771 -6.28768629 10.35951683 -8 12 C-9.46867565 13.4630919 -10.934215 14.9293348 -12.3976593 16.3976593 C-44.2651062 48.2651062 -76.1325531 80.1325531 -108 112 C-108 108.25983417 -107.0658409 107.54723807 -104.625 104.8125 C-103.99851562 104.09707031 -103.37203125 103.38164063 -102.7265625 102.64453125 C-101 101 -101 101 -99 101 C-98.67 100.01 -98.34 99.02 -98 98 C-96.34211215 96.65576661 -94.67423683 95.32381517 -93 94 C-92.34 93.175 -91.68 92.35 -91 91.5 C-88.88958279 88.86197849 -86.65677358 87.07357938 -84 85 C-81.13833918 82.28509102 -78.52553788 79.46039445 -76 76.4375 C-73.5701208 73.55396049 -70.95496534 71.34881861 -68 69 C-67.175 68.01 -66.35 67.02 -65.5 66 C-63.1693574 63.20322888 -60.83250375 61.25147734 -58 59 C-57.34 58.175 -56.68 57.35 -56 56.5 C-53.89680365 53.87100457 -51.62100457 52.09680365 -49 50 C-48.401875 49.236875 -47.80375 48.47375 -47.1875 47.6875 C-45.25203427 45.3096421 -43.38468972 43.53679613 -41.0625 41.5625 C-38.588648 39.45311975 -36.59687631 37.51625157 -34.5 35 C-31.87306285 31.84767542 -29.03373835 29.37858062 -25.91796875 26.73046875 C-24.1946154 25.17558987 -22.75739532 23.62203767 -21.3125 21.8125 C-19.0778087 19.09463221 -16.76437182 17.15006697 -14 15 C-13.67 14.34 -13.34 13.68 -13 13 C-12.34 13 -11.68 13 -11 13 C-10.34 11.68 -9.68 10.36 -9 9 C-8.34 9 -7.68 9 -7 9 C-6.67 8.01 -6.34 7.02 -6 6 C-5.34 6 -4.68 6 -4 6 C-3.67 5.01 -3.34 4.02 -3 3 C-2.34 3 -1.68 3 -1 3 C-0.67 2.01 -0.34 1.02 0 0 Z " fill="#F5F2E6" transform="translate(655,633)"/>
<path d="M0 0 C5.04417602 2.58029004 8.59286271 6.36728294 12.5 10.375 C13.15097656 11.035 13.80195312 11.695 14.47265625 12.375 C15.74868296 13.66907153 17.02281445 14.96501496 18.29492188 16.26293945 C20.51451916 18.52417008 22.75778699 20.761205 25 23 C26.34407387 24.3551476 27.68778766 25.71065239 29.03125 27.06640625 C30.52077687 28.56516028 32.01036157 30.06385685 33.5 31.5625 C34.61955078 32.69461914 34.61955078 32.69461914 35.76171875 33.84960938 C39.36960302 37.47345773 42.97956892 40.83238763 47 44 C48.22174871 45.32334943 49.41183563 46.6768972 50.5625 48.0625 C52.36235279 50.22814273 53.93647825 51.95350701 56.21484375 53.62109375 C56.80394531 54.07613281 57.39304687 54.53117188 58 55 C58 55.66 58 56.32 58 57 C58.66 57 59.32 57 60 57 C61.70884005 58.62339805 63.37446717 60.29319053 65 62 C65.66 62.66 66.32 63.32 67 64 C66.625 67.125 66.625 67.125 66 70 C65.34 70 64.68 70 64 70 C63.62875 70.928125 63.62875 70.928125 63.25 71.875 C61.79371361 74.35068687 60.62187494 74.95125002 58 76 C58.639375 75.319375 59.27875 74.63875 59.9375 73.9375 C62.45012795 70.35890868 62.9644808 68.3698128 63 64 C61.24671157 61.4683155 59.7364055 59.70798138 57.5456543 57.62158203 C56.9540451 57.02719833 56.36243591 56.43281464 55.75289917 55.82041931 C53.79519635 53.86319097 51.81057989 51.93591428 49.82421875 50.0078125 C48.45827813 48.65425845 47.09402622 47.29899829 45.73139954 45.94210815 C42.1411444 42.37671373 38.52707757 38.83641314 34.90795898 35.300354 C31.95258295 32.40501158 29.01403323 29.49292181 26.07631207 26.5796833 C20.01565345 20.56965754 13.9439949 14.57066098 7.8425293 8.60205078 C7.27775375 8.04624832 6.71297821 7.49044586 6.13108826 6.9178009 C3.31910035 4.11943568 3.31910035 4.11943568 0 2 C0 1.34 0 0.68 0 0 Z " fill="#C3E0E3" transform="translate(993,702)"/>
<path d="M0 0 C3.09810362 1.37820981 5.20420084 2.95944301 7.58764648 5.3605957 C8.61407509 6.3872509 8.61407509 6.3872509 9.66123962 7.43464661 C10.75511742 8.54400826 10.75511742 8.54400826 11.87109375 9.67578125 C12.63043716 10.43795456 13.38978058 11.20012787 14.1721344 11.98539734 C16.59865978 14.42310824 19.01815209 16.86766756 21.4375 19.3125 C23.06268947 20.9477245 24.68833545 22.58249542 26.31445312 24.21679688 C29.95784432 27.88006217 33.59694945 31.54751624 37.23117065 35.21987915 C38.76282248 36.76130843 40.30532774 38.29063451 41.85180664 39.81713867 C44 42 44 42 46.375 45 C49.33769881 48.3859415 52.2699165 50.51327767 56 53 C59.24074808 50.64309231 61.85412743 48.09939798 64.4375 45.0625 C67.38065654 41.6094545 70.42715413 38.78856263 74 36 C72.66000502 39.006818 71.20154709 40.99762609 68.8125 43.25 C66.0901532 45.84809031 63.7630183 48.54400785 61.4375 51.5 C58.45544932 54.96562647 58.45544932 54.96562647 54.6875 55.25 C51.60905921 53.81816707 51.23510108 53.04024881 50 50 C49.01 49.67 48.02 49.34 47 49 C47 48.34 47 47.68 47 47 C46.34 47 45.68 47 45 47 C43.66666667 45.33333333 42.33333333 43.66666667 41 42 C39.55581772 40.81256123 38.1105758 39.62619493 36.6484375 38.4609375 C34.02807232 36.13862333 31.84863603 33.45709573 29.61328125 30.76953125 C27.92720578 28.77730559 27.92720578 28.77730559 25 27 C25 26.34 25 25.68 25 25 C24.01 24.67 23.02 24.34 22 24 C22 23.34 22 22.68 22 22 C21.34 22 20.68 22 20 22 C18.51953125 20.4609375 18.51953125 20.4609375 16.8125 18.375 C14.50183615 15.64247221 12.2248849 13.2422963 9.4375 11 C5.58677765 7.84624097 2.82152359 4.07208899 0 0 Z " fill="#CAE6E8" transform="translate(945,775)"/>
<path d="M0 0 C5.29271223 4.41059352 10.17333168 9.08815518 15 14 C15.77988281 14.76570312 16.55976562 15.53140625 17.36328125 16.3203125 C19.30042046 18.28901991 21.14773118 20.26442998 22.97265625 22.33203125 C23.47990234 22.90244141 23.98714844 23.47285156 24.50976562 24.06054688 C25.55635642 25.24141725 26.59529655 26.42910724 27.62695312 27.62304688 C29.00419763 29.15819203 30.49688992 30.5878622 32 32 C33.32 32 34.64 32 36 32 C37.63676257 30.0399719 37.63676257 30.0399719 39 28 C39.66 28 40.32 28 41 28 C41.2475 27.4225 41.495 26.845 41.75 26.25 C43 24 43 24 45 22.0625 C47.16235784 20.11742019 47.16235784 20.11742019 47.9375 17.375 C49.35004417 14.21754833 50.87762933 14.2009118 54 13 C54.88693303 10.95894361 54.88693303 10.95894361 55 9 C56.65 9 58.3 9 60 9 C57.26896815 13.66551274 54.16800947 16.72991 50.03125 20.1875 C47.46250934 22.47960705 45.35139215 25.0142921 43.2265625 27.71484375 C42.82179688 28.13894531 42.41703125 28.56304688 42 29 C41.34 29 40.68 29 40 29 C39.71125 29.61875 39.4225 30.2375 39.125 30.875 C38 33 38 33 36 35 C32.875 34.625 32.875 34.625 30 34 C29.67 33.01 29.34 32.02 29 31 C28.01 30.67 27.02 30.34 26 30 C22 25.54285714 22 25.54285714 22 23 C21.01 22.67 20.02 22.34 19 22 C19 21.34 19 20.68 19 20 C18.34 20 17.68 20 17 20 C14.875 18.125 14.875 18.125 13 16 C13 15.34 13 14.68 13 14 C12.34 14 11.68 14 11 14 C9.4140625 12.390625 9.4140625 12.390625 7.625 10.25 C5.66242273 7.93096298 3.7411705 5.74780716 1.5625 3.625 C0 2 0 2 0 0 Z " fill="#F6F2E7" transform="translate(546,795)"/>
<path d="M0 0 C4.00939243 1.61330314 6.75673781 4.42459698 9.75 7.4375 C10.50990234 8.17323242 10.50990234 8.17323242 11.28515625 8.92382812 C12.5859308 10.22284961 13.79988368 11.60745123 15 13 C15 13.99 15 14.98 15 16 C14.34 16 13.68 16 13 16 C12.78214844 16.54527344 12.56429687 17.09054687 12.33984375 17.65234375 C10.55656657 20.77697811 8.12707251 23.08486215 5.5625 25.5625 C5.07201172 26.04396484 4.58152344 26.52542969 4.07617188 27.02148438 C2.72088335 28.35116691 1.36061877 29.67577222 0 31 C-1.00211639 31.99787912 -2.00338407 32.99662735 -3 34 C-3 30.79604584 -2.25664978 28.90600261 -1 26 C0.32 26 1.64 26 3 26 C2.67 25.01 2.34 24.02 2 23 C5.91176471 17.41176471 5.91176471 17.41176471 9.3125 16.125 C9.869375 16.08375 10.42625 16.0425 11 16 C9.7236973 11.15425734 8.0261914 8.58948309 4.375 5.1875 C2.90533433 3.80360346 1.44366977 2.41099412 0 1 C0 0.67 0 0.34 0 0 Z " fill="#D6CFBD" transform="translate(807,753)"/>
<path d="M0 0 C0.66 0.33 1.32 0.66 2 1 C1.32831787 1.64549805 0.65663574 2.29099609 -0.03540039 2.95605469 C-2.51845892 5.35396623 -4.98991099 7.76269686 -7.4543457 10.1796875 C-8.52379507 11.22397145 -9.59768596 12.26372669 -10.67602539 13.29882812 C-12.22427869 14.78651929 -13.75589136 16.28970227 -15.28515625 17.796875 C-16.21207275 18.69760742 -17.13898926 19.59833984 -18.09399414 20.52636719 C-20.19767141 22.75158523 -20.19767141 22.75158523 -20.046875 25.05908203 C-18.68495815 27.58409111 -17.03393584 29.26729916 -14.96484375 31.2578125 C-14.15595703 32.04800781 -13.34707031 32.83820312 -12.51367188 33.65234375 C-11.66353516 34.46832031 -10.81339844 35.28429687 -9.9375 36.125 C-8.25473436 37.74807509 -6.57610887 39.37545737 -4.90234375 41.0078125 C-3.78073853 42.08506592 -3.78073853 42.08506592 -2.63647461 43.18408203 C-1 45 -1 45 -1 47 C-2.485 46.505 -2.485 46.505 -4 46 C-4 45.34 -4 44.68 -4 44 C-4.66 44 -5.32 44 -6 44 C-8.125 42.125 -8.125 42.125 -10 40 C-10 39.34 -10 38.68 -10 38 C-10.99 37.67 -11.98 37.34 -13 37 C-14.34423339 35.34211215 -15.67618483 33.67423683 -17 32 C-17.886875 31.34 -18.77375 30.68 -19.6875 30 C-22 28 -22 28 -23.125 25.5625 C-23 23 -23 23 -20.875 20.5625 C-19.92625 19.716875 -18.9775 18.87125 -18 18 C-17.195625 17.01 -16.39125 16.02 -15.5625 15 C-12.93820239 11.92765158 -10.10305001 9.57487128 -7 7 C-5.65263027 5.34466005 -4.31665664 3.67987227 -3 2 C-2.01 1.34 -1.02 0.68 0 0 Z " fill="#F7F4E9" transform="translate(544,745)"/>
<path d="M0 0 C5.85970078 4.86950271 11.2632623 10.10226128 16.65234375 15.484375 C17.55247696 16.38117981 18.45261017 17.27798462 19.38002014 18.20196533 C21.26972655 20.08663236 23.15827967 21.97238047 25.04516602 23.85986328 C27.46678591 26.28158571 29.8952685 28.69630182 32.32547665 31.1094017 C34.64723423 33.41741901 36.9618537 35.73257251 39.27734375 38.046875 C40.15220932 38.91455505 41.02707489 39.78223511 41.92845154 40.6762085 C42.72670853 41.47754211 43.52496552 42.27887573 44.34741211 43.10449219 C45.05465927 43.81031433 45.76190643 44.51613647 46.49058533 45.24334717 C48 47 48 47 48 49 C44.62691239 47.87563746 43.84876903 46.92657267 41.625 44.25 C38.89851248 40.98817474 36.02849213 37.98485392 33 35 C31.87415737 33.87584326 30.74921312 32.75078633 29.625 31.625 C29.03203125 31.03203125 28.4390625 30.4390625 27.828125 29.828125 C21.55208333 23.55208333 15.27604167 17.27604167 9 11 C8.23558594 10.25878906 7.47117187 9.51757812 6.68359375 8.75390625 C5.85988281 7.94824219 5.03617188 7.14257812 4.1875 6.3125 C3.39730469 5.54550781 2.60710938 4.77851562 1.79296875 3.98828125 C0 2 0 2 0 0 Z " fill="#C9E4E6" transform="translate(897,726)"/>
<path d="M0 0 C0.66 0.33 1.32 0.66 2 1 C-1.3 4.3 -4.6 7.6 -8 11 C-5.87202123 15.25595755 -3.23675128 18.01794739 0.1015625 21.296875 C0.69802582 21.89050842 1.29448914 22.48414185 1.9090271 23.09576416 C3.8096981 24.98526627 5.71721474 26.86768392 7.625 28.75 C8.91712468 30.03209065 10.20879676 31.31463761 11.5 32.59765625 C14.66144479 35.73708432 17.8290461 38.87017801 21 42 C18 42 18 42 15.41210938 39.73681641 C14.38174737 38.69919982 13.35946867 37.65351764 12.34375 36.6015625 C11.80020874 36.05140472 11.25666748 35.50124695 10.69665527 34.93441772 C8.95722265 33.17154253 7.22823228 31.39885108 5.5 29.625 C3.77011019 27.86002212 2.03810323 26.09719836 0.30334473 24.33700562 C-0.77613569 23.24058456 -1.85251176 22.14109648 -2.92541504 21.03823853 C-5.19260347 18.72595391 -7.29323842 16.80450772 -10 15 C-10.6875 12.3125 -10.6875 12.3125 -10 9 C-7.57077852 6.35044097 -4.82952521 4.20452968 -2 2 C-1.34 1.34 -0.68 0.68 0 0 Z " fill="#D6EDEF" transform="translate(740,547)"/>
<path d="M0 0 C0 3 0 3 -1.50390625 4.76171875 C-2.18324219 5.39722656 -2.86257813 6.03273438 -3.5625 6.6875 C-6.52465916 9.49815543 -9.10666728 12.35120324 -11.625 15.5625 C-13.33203125 17.55078125 -13.33203125 17.55078125 -15 19 C-18.3125 19.25 -18.3125 19.25 -21 18 C-22.1875 16 -22.1875 16 -23 14 C-23.99 13.67 -24.98 13.34 -26 13 C-26 12.34 -26 11.68 -26 11 C-26.66 11 -27.32 11 -28 11 C-29.34919532 9.34614767 -30.68133728 7.678298 -32 6 C-32.99 5.34 -33.98 4.68 -35 4 C-34.67 3.34 -34.34 2.68 -34 2 C-25.18599122 9.7386613 -25.18599122 9.7386613 -22.125 12.875 C-19.99182849 15.1470871 -19.99182849 15.1470871 -17 17 C-12.98276165 14.07837211 -9.91860286 10.72322764 -6.71484375 6.97265625 C-4.58448934 4.52202077 -2.33022931 2.2596163 0 0 Z " fill="#D6ECED" transform="translate(1018,811)"/>
<path d="M0 0 C2.79425088 1.2762525 4.85142126 2.59970977 7.02441406 4.765625 C7.58469299 5.31959961 8.14497192 5.87357422 8.722229 6.44433594 C9.31404968 7.04020508 9.90587036 7.63607422 10.515625 8.25 C11.13145447 8.86391602 11.74728394 9.47783203 12.3817749 10.11035156 C13.67852646 11.40574483 14.97276657 12.70365644 16.26464844 14.00390625 C18.24975202 15.99975068 20.24533591 17.98466726 22.2421875 19.96875 C23.50064211 21.22852555 24.75847654 22.48892101 26.015625 23.75 C26.6155426 24.34586914 27.21546021 24.94173828 27.83355713 25.55566406 C32 29.77006753 32 29.77006753 32 32 C32.99 32.33 33.98 32.66 35 33 C34.505 33.99 34.505 33.99 34 35 C33.01 35 32.02 35 31 35 C30.45605591 33.72153198 30.45605591 33.72153198 29.90112305 32.41723633 C27.63285014 28.34005437 24.90925989 25.54766532 21.58203125 22.32421875 C20.96478683 21.71359085 20.34754242 21.10296295 19.71159363 20.47383118 C17.75224839 18.53777254 15.7829701 16.61222919 13.8125 14.6875 C11.83314202 12.74316642 9.85593923 10.79670708 7.88127136 8.84761047 C6.65467192 7.63804113 5.42501233 6.43156602 4.1920929 5.22843933 C2.77617301 3.83760105 1.3852206 2.42141624 0 1 C0 0.67 0 0.34 0 0 Z " fill="#C8E1E4" transform="translate(924,633)"/>
<path d="M0 0 C0.969375 0.886875 1.93875 1.77375 2.9375 2.6875 C6.94518469 6.14494929 11.30561573 8.59426112 16 11 C16 11.66 16 12.32 16 13 C16.66 13 17.32 13 18 13 C18.04125 13.680625 18.0825 14.36125 18.125 15.0625 C19.37387681 19.25515787 22.04026731 21.8592439 25 25 C21.23309364 23.26142784 18.78767463 21.09741625 16 18 C16 17.34 16 16.68 16 16 C15.46890625 15.79375 14.9378125 15.5875 14.390625 15.375 C10.99226564 13.42038808 8.48944072 10.77876283 5.75 8 C5.19570313 7.4534375 4.64140625 6.906875 4.0703125 6.34375 C0 2.2533867 0 2.2533867 0 0 Z " fill="#A1C3C7" transform="translate(796,625)"/>
<path d="M0 0 C5.43733055 4.52991796 10.46458931 9.34294216 15.4375 14.375 C16.16904297 15.11105469 16.90058594 15.84710937 17.65429688 16.60546875 C19.43852723 18.40136074 21.22036124 20.19955985 23 22 C26.27773504 21.24849977 26.27773504 21.24849977 28 18 C28.66 18 29.32 18 30 18 C28.84826645 20.46800047 27.95216435 22.04783565 26 24 C23.375 24.125 23.375 24.125 21 24 C20.34 22.68 19.68 21.36 19 20 C18.34 20 17.68 20 17 20 C15.625 18.6015625 15.625 18.6015625 14 16.625 C10.23777988 12.17078591 6.13941718 8.14316468 1.94140625 4.1015625 C0 2 0 2 0 0 Z " fill="#F7F4E9" transform="translate(739,804)"/>
<path d="M0 0 C5.29322266 4.41101888 10.17081234 9.08947866 15 14 C15.928125 14.9075 16.85625 15.815 17.8125 16.75 C19.74646361 18.73921971 21.40570655 20.73442509 23 23 C21.68 22.67 20.36 22.34 19 22 C19 21.34 19 20.68 19 20 C18.34 20 17.68 20 17 20 C14.875 18.125 14.875 18.125 13 16 C13 15.34 13 14.68 13 14 C12.34 14 11.68 14 11 14 C9.4140625 12.390625 9.4140625 12.390625 7.625 10.25 C5.66242273 7.93096298 3.7411705 5.74780716 1.5625 3.625 C0 2 0 2 0 0 Z " fill="#F9F5E9" transform="translate(546,795)"/>
<path d="M0 0 C2.86697492 1.28519565 4.97607712 2.57129254 7 5 C7 5.66 7 6.32 7 7 C7.99 7.33 8.98 7.66 10 8 C10 8.66 10 9.32 10 10 C10.61875 10.2475 11.2375 10.495 11.875 10.75 C14.35068687 12.20628639 14.95125002 13.37812506 16 16 C12.5625 14.75 12.5625 14.75 9 13 C8.0625 10.8125 8.0625 10.8125 8 9 C5.03 8.505 5.03 8.505 2 8 C1.34 5.36 0.68 2.72 0 0 Z " fill="#9CBEC3" transform="translate(889,598)"/>
<path d="M0 0 C2.6875 1.5625 2.6875 1.5625 3.5625 3.6875 C3.60375 4.30625 3.645 4.925 3.6875 5.5625 C3.11 5.088125 2.5325 4.61375 1.9375 4.125 C-0.23832084 2.6140133 -1.73852448 2.02213849 -4.3125 1.5625 C-4.539375 2.119375 -4.76625 2.67625 -5 3.25 C-6.6828574 6.21503447 -8.84871374 8.21603689 -11.3125 10.5625 C-12.034375 11.325625 -12.75625 12.08875 -13.5 12.875 C-15.3125 14.5625 -15.3125 14.5625 -17.3125 14.5625 C-16.9825 13.5725 -16.6525 12.5825 -16.3125 11.5625 C-15.6525 11.5625 -14.9925 11.5625 -14.3125 11.5625 C-13.9825 10.5725 -13.6525 9.5825 -13.3125 8.5625 C-12.6525 8.5625 -11.9925 8.5625 -11.3125 8.5625 C-11.10625 8.005625 -10.9 7.44875 -10.6875 6.875 C-8.06203044 2.45943755 -5.32562321 -0.7033842 0 0 Z " fill="#F5F2E9" transform="translate(674.3125,618.4375)"/>
<path d="M0 0 C0 0.66 0 1.32 0 2 C-0.66 2 -1.32 2 -2 2 C-2.33 2.99 -2.66 3.98 -3 5 C-3.66 5 -4.32 5 -5 5 C-5.33 5.99 -5.66 6.98 -6 8 C-6.66 8 -7.32 8 -8 8 C-8.268125 8.598125 -8.53625 9.19625 -8.8125 9.8125 C-9.98493467 11.97224808 -11.19369282 13.35790256 -13 15 C-13.66 14.67 -14.32 14.34 -15 14 C-14.360625 13.4225 -13.72125 12.845 -13.0625 12.25 C-11.01776132 10.01937599 -10.41794801 8.92563609 -10 6 C-9.34 6 -8.68 6 -8 6 C-7.938125 5.38125 -7.87625 4.7625 -7.8125 4.125 C-7 2 -7 2 -4.5625 0.75 C-2 0 -2 0 0 0 Z " fill="#DFD8C8" transform="translate(803,787)"/>
<path d="M0 0 C0.66 0.33 1.32 0.66 2 1 C0.65455126 4.15276795 -0.59539325 5.67761008 -3.4375 7.5625 C-9.2518534 11.70643143 -14.05100374 16.88725019 -19 22 C-19 19 -19 19 -17.85424805 17.51367188 C-17.32871338 17.00384766 -16.80317871 16.49402344 -16.26171875 15.96875 C-15.68873047 15.40542969 -15.11574219 14.84210937 -14.52539062 14.26171875 C-13.91888672 13.68035156 -13.31238281 13.09898437 -12.6875 12.5 C-11.79514648 11.62794922 -11.79514648 11.62794922 -10.88476562 10.73828125 C-9.77119164 9.65083582 -8.65456455 8.56650183 -7.53393555 7.48632812 C-6.47070619 6.45609729 -5.43713285 5.39471007 -4.42895508 4.31054688 C-3 3 -3 3 -1 3 C-0.67 2.01 -0.34 1.02 0 0 Z " fill="#CAE3E5" transform="translate(762,525)"/>
<path d="M0 0 C0.66 0.33 1.32 0.66 2 1 C-0.25112374 5.50224747 -2.87430941 7.2495396 -7 10 C-8.00568242 11.66324401 -9.00664799 13.32936253 -10 15 C-12.1875 15.8125 -12.1875 15.8125 -14 16 C-13.34 14.68 -12.68 13.36 -12 12 C-11.34 12 -10.68 12 -10 12 C-9.773125 11.443125 -9.54625 10.88625 -9.3125 10.3125 C-7.62449964 7.33840412 -5.53323483 5.27991135 -3 3 C-2.34 3 -1.68 3 -1 3 C-0.67 2.01 -0.34 1.02 0 0 Z " fill="#ACCBD0" transform="translate(778,509)"/>
<path d="M0 0 C0.66 0.66 1.32 1.32 2 2 C1.113125 2.721875 0.22625 3.44375 -0.6875 4.1875 C-3.62966524 6.64273346 -6.32048415 9.25668615 -9 12 C-10.43615717 13.43884158 -11.87373626 14.87626485 -13.3125 16.3125 C-14.00988281 17.00988281 -14.70726562 17.70726562 -15.42578125 18.42578125 C-16.20501953 19.20501953 -16.20501953 19.20501953 -17 20 C-17.66 19.67 -18.32 19.34 -19 19 C-12.73 12.73 -6.46 6.46 0 0 Z " fill="#BCB39A" transform="translate(549,742)"/>
<path d="M0 0 C0 3 0 3 -2.51953125 5.8125 C-3.60968941 6.88269189 -4.7077166 7.94491274 -5.8125 9 C-6.63331055 9.80050781 -6.63331055 9.80050781 -7.47070312 10.6171875 C-8.49638039 11.61675662 -9.5251114 12.61320877 -10.55786133 13.60546875 C-12.05562606 15.05378975 -13.53045429 16.52310248 -15 18 C-15 14.67941669 -14.56938028 12.91456338 -13 10 C-12.236875 9.70480469 -11.47375 9.40960937 -10.6875 9.10546875 C-7.58906427 7.83096684 -5.98551975 6.28986821 -3.6875 3.875 C-2.64142578 2.78832031 -2.64142578 2.78832031 -1.57421875 1.6796875 C-1.05472656 1.12539063 -0.53523437 0.57109375 0 0 Z " fill="#E9E4D5" transform="translate(819,769)"/>
<path d="M0 0 C2 0 2 0 4.125 1.875 C6 4 6 4 6 6 C6.99 6.33 7.98 6.66 9 7 C9 7.66 9 8.32 9 9 C4.56 9.36 4.56 9.36 2.25 7.875 C0.56014759 5.34022139 0.33269391 2.99424517 0 0 Z " fill="#73A0A7" transform="translate(880,589)"/>
<path d="M0 0 C1.65 0 3.3 0 5 0 C2.18020225 4.66351166 -0.60417387 7.75091112 -5 11 C-5.66 11 -6.32 11 -7 11 C-6.8125 8.625 -6.8125 8.625 -6 6 C-4.34795544 5.29788106 -2.68076231 4.63028587 -1 4 C-0.11306697 1.95894361 -0.11306697 1.95894361 0 0 Z " fill="#D8D0BC" transform="translate(601,804)"/>
<path d="M0 0 C0.66 0 1.32 0 2 0 C2.0825 1.11375 2.165 2.2275 2.25 3.375 C2.57873787 7.05753944 2.57873787 7.05753944 5.0625 8.4375 C5.701875 8.623125 6.34125 8.80875 7 9 C7 10.32 7 11.64 7 13 C3.81042093 11.93680698 2.91621368 11.14289269 0.75 8.6875 C-0.06210937 7.79611328 -0.06210937 7.79611328 -0.890625 6.88671875 C-2 5 -2 5 -1.734375 2.83203125 C-1 1 -1 1 0 0 Z " fill="#2B6E78" transform="translate(980,802)"/>
<path d="M0 0 C1.14926266 0.95421808 2.29430541 1.91352045 3.4375 2.875 C4.07558594 3.40867187 4.71367188 3.94234375 5.37109375 4.4921875 C7 6 7 6 8 8 C6.73381295 14.33093525 6.73381295 14.33093525 3.875 16.9375 C3.25625 17.288125 2.6375 17.63875 2 18 C2 17.01 2 16.02 2 15 C2.66 15 3.32 15 4 15 C4.89056093 11.01283486 4.89056093 11.01283486 5 7 C2.68726558 4.1028059 2.68726558 4.1028059 0 2 C0 1.34 0 0.68 0 0 Z " fill="#2C6C75" transform="translate(1049,759)"/>
<path d="M0 0 C0 3 0 3 -2.1875 5.3125 C-3.115625 6.199375 -4.04375 7.08625 -5 8 C-5.84385172 9.05416553 -6.6773296 10.11672266 -7.5 11.1875 C-9.98299616 13.98087068 -11.46519923 14.99005692 -15 16 C-10.30233025 10.33870569 -5.25276628 5.14771096 0 0 Z " fill="#BBB198" transform="translate(625,666)"/>
<path d="M0 0 C4.2026393 2.63886654 7.56638098 5.36440339 11 9 C10.67 9.66 10.34 10.32 10 11 C2.67264574 8.25650224 2.67264574 8.25650224 1.0234375 5.17578125 C0.5 3.25 0.5 3.25 0 0 Z " fill="#95BABE" transform="translate(847,556)"/>
<path d="M0 0 C3.81936528 1.55603771 6.26044438 3.95604931 9 7 C9 7.66 9 8.32 9 9 C10.32 9.66 11.64 10.32 13 11 C13 11.66 13 12.32 13 13 C12.01 13.33 11.02 13.66 10 14 C9.69707031 13.49210938 9.39414062 12.98421875 9.08203125 12.4609375 C6.35097382 7.97360006 3.45901007 3.95315436 0 0 Z " fill="#B5D1D5" transform="translate(864,573)"/>
<path d="M0 0 C3.75019168 1.25006389 4.57518228 2.93331877 7 6 C8.63356951 7.37368345 10.2925002 8.71937515 12 10 C11.67 10.66 11.34 11.32 11 12 C8.40764673 10.92730209 7.1237726 10.16833074 5.4375 7.875 C4.7259375 6.946875 4.7259375 6.946875 4 6 C3.01 6 2.02 6 1 6 C0.67 4.02 0.34 2.04 0 0 Z " fill="#9BC0C5" transform="translate(826,535)"/>
<path d="M0 0 C0 -0.66 0 -1.32 0 -2 C0.99 -1.67 1.98 -1.34 3 -1 C0.03 1.475 0.03 1.475 -3 4 C-4.65 2.35 -6.3 0.7 -8 -1 C-4.37673261 -2.2077558 -3.35853631 -1.54311128 0 0 Z " fill="#37737A" transform="translate(1004,825)"/>
<path d="M0 0 C0.33 0.66 0.66 1.32 1 2 C-1.82522609 6.67248931 -4.67760044 9.65996398 -9 13 C-9.66 12.67 -10.32 12.34 -11 12 C-10.37351562 11.38511719 -9.74703125 10.77023437 -9.1015625 10.13671875 C-8.28429687 9.32847656 -7.46703125 8.52023437 -6.625 7.6875 C-5.40683594 6.48673828 -5.40683594 6.48673828 -4.1640625 5.26171875 C-1.87395158 2.99990063 -1.87395158 2.99990063 0 0 Z " fill="#BCB29A" transform="translate(650,640)"/>
<path d="M0 0 C3.99500618 1.3697164 6.80009492 3.25722422 10 6 C9.67 6.99 9.34 7.98 9 9 C7.87105124 8.06725891 6.74699124 7.12859878 5.625 6.1875 C4.99851562 5.66542969 4.37203125 5.14335938 3.7265625 4.60546875 C2 3 2 3 0 0 Z " fill="#327179" transform="translate(749,577)"/>
<path d="M0 0 C2.0625 0.4375 2.0625 0.4375 4 1 C3.38125 1.556875 2.7625 2.11375 2.125 2.6875 C-0.06106379 5.06645178 -0.98785699 6.96357096 -2 10 C-2.66 10 -3.32 10 -4 10 C-4.33 9.01 -4.66 8.02 -5 7 C-4.01 7 -3.02 7 -2 7 C-1.855625 6.030625 -1.71125 5.06125 -1.5625 4.0625 C-1 1 -1 1 0 0 Z " fill="#4B848C" transform="translate(1030,794)"/>
<path d="M0 0 C0.99 0.33 1.98 0.66 3 1 C3 2.32 3 3.64 3 5 C2.34 5 1.68 5 1 5 C0.7525 5.61875 0.505 6.2375 0.25 6.875 C-1.20628639 9.35068687 -2.37812506 9.95125002 -5 11 C-4.360625 10.29875 -3.72125 9.5975 -3.0625 8.875 C-0.83613898 5.77158767 -0.34919057 3.75379861 0 0 Z " fill="#A1C2C4" transform="translate(1056,767)"/>
<path d="M0 0 C0 3 0 3 -2.25 5.4375 C-3.1575 6.283125 -4.065 7.12875 -5 8 C-6.1446875 9.1446875 -6.1446875 9.1446875 -7.3125 10.3125 C-7.869375 10.869375 -8.42625 11.42625 -9 12 C-9.66 11.67 -10.32 11.34 -11 11 C-7.37 7.37 -3.74 3.74 0 0 Z " fill="#BBB298" transform="translate(561,730)"/>
<path d="M0 0 C0 2.62113708 -0.31292445 4.50935112 -1 7 C0.32 7.66 1.64 8.32 3 9 C2.34 9.66 1.68 10.32 1 11 C-0.65 9.35 -2.3 7.7 -4 6 C-2.84826645 3.53199953 -1.95216435 1.95216435 0 0 Z " fill="#3B727A" transform="translate(735,554)"/>
<path d="M0 0 C1 3 1 3 1 5 C1.99 5.66 2.98 6.32 4 7 C4 7.66 4 8.32 4 9 C4.66 9.33 5.32 9.66 6 10 C3 10 3 10 1.39453125 8.46875 C0.87246094 7.8190625 0.35039063 7.169375 -0.1875 6.5 C-0.71730469 5.8503125 -1.24710938 5.200625 -1.79296875 4.53125 C-2.19128906 4.0259375 -2.58960938 3.520625 -3 3 C-2.34 3 -1.68 3 -1 3 C-0.67 2.01 -0.34 1.02 0 0 Z " fill="#296D74" transform="translate(837,659)"/>
<path d="M0 0 C1.98 0.99 1.98 0.99 4 2 C4 2.66 4 3.32 4 4 C4.99 4.33 5.98 4.66 7 5 C7 5.66 7 6.32 7 7 C5.35 6.67 3.7 6.34 2 6 C1.34 4.02 0.68 2.04 0 0 Z " fill="#DBD5C4" transform="translate(740,686)"/>
<path d="M0 0 C3.67420866 0.30618405 4.78135513 0.75771784 7.3125 3.5625 C8.1478125 4.7690625 8.1478125 4.7690625 9 6 C4.9666466 6 3.16482462 4.39120082 0 2 C0 1.34 0 0.68 0 0 Z " fill="#568B92" transform="translate(793,622)"/>
<path d="M0 0 C0 3.57575896 -1.08840607 5.05295935 -3 8 C-4.32 7.67 -5.64 7.34 -7 7 C-4.78071806 4.09197539 -3.07030857 2.04687238 0 0 Z " fill="#BCB199" transform="translate(669,622)"/>
<path d="M0 0 C0 3 0 3 -1.3125 4.38671875 C-2.875 5.59114583 -4.4375 6.79557292 -6 8 C-6.33 7.01 -6.66 6.02 -7 5 C-4.87219421 2.65941363 -2.88437779 1.29299694 0 0 Z " fill="#2C6E77" transform="translate(786,505)"/>
<path d="M0 0 C1.32 0.66 2.64 1.32 4 2 C4 2.66 4 3.32 4 4 C4.99 4.33 5.98 4.66 7 5 C6.67 5.66 6.34 6.32 6 7 C3.97954558 6.39816251 1.97888961 5.72693904 0 5 C-0.33 4.34 -0.66 3.68 -1 3 C-0.67 2.01 -0.34 1.02 0 0 Z " fill="#DFD8C8" transform="translate(756,702)"/>
<path d="M0 0 C3.72070823 1.24023608 4.62521091 2.95730148 7 6 C7.99 6.66 8.98 7.32 10 8 C10 8.66 10 9.32 10 10 C6.82028869 8.62442924 4.95149011 7.10041354 2.75 4.4375 C1.96882812 3.50744141 1.96882812 3.50744141 1.171875 2.55859375 C0 1 0 1 0 0 Z " fill="#EFE8DB" transform="translate(709,655)"/>
<path d="M0 0 C1.98 0.495 1.98 0.495 4 1 C4.66 3.31 5.32 5.62 6 8 C3.69 6.02 1.38 4.04 -1 2 C-0.67 1.34 -0.34 0.68 0 0 Z " fill="#2A6B74" transform="translate(921,747)"/>
<path d="M0 0 C3.37503669 1.1858237 5.64722731 2.27573689 8 5 C7.67 5.99 7.34 6.98 7 8 C5.83035398 6.8572081 4.66435444 5.71068285 3.5 4.5625 C2.8503125 3.92441406 2.200625 3.28632812 1.53125 2.62890625 C0 1 0 1 0 0 Z " fill="#2C6B74" transform="translate(908,736)"/>
<path d="M0 0 C0.66 0.66 1.32 1.32 2 2 C0.29374499 4.78388975 -0.47626739 5.85384206 -3.6875 6.75 C-4.8321875 6.87375 -4.8321875 6.87375 -6 7 C-4.60667426 3.63279613 -3.0210714 2.0140476 0 0 Z " fill="#BCB297" transform="translate(661,630)"/>
<path d="M0 0 C3.36016893 1.12005631 4.69064913 2.37211797 7 5 C7 5.66 7 6.32 7 7 C5.35 6.67 3.7 6.34 2 6 C1.34 4.02 0.68 2.04 0 0 Z " fill="#99BDC3" transform="translate(819,528)"/>
<path d="M0 0 C0.33 1.32 0.66 2.64 1 4 C-0.8125 5.5625 -0.8125 5.5625 -3 7 C-3.99 6.67 -4.98 6.34 -6 6 C-4.02 4.02 -2.04 2.04 0 0 Z " fill="#36707A" transform="translate(742,547)"/>
<path d="M0 0 C1.32 0 2.64 0 4 0 C3.67 0.99 3.34 1.98 3 3 C2.34 3 1.68 3 1 3 C0.67 3.99 0.34 4.98 0 6 C-0.66 5.67 -1.32 5.34 -2 5 C-1.34 3.35 -0.68 1.7 0 0 Z " fill="#E2DBCC" transform="translate(771,816)"/>
<path d="M0 0 C0 3.58045317 -0.80367515 4.29683095 -3 7 C-3.66 7.99 -4.32 8.98 -5 10 C-5.68359375 8.203125 -5.68359375 8.203125 -6 6 C-4.78515625 4.296875 -4.78515625 4.296875 -3.0625 2.75 C-2.21365234 1.96882812 -2.21365234 1.96882812 -1.34765625 1.171875 C-0.90292969 0.78515625 -0.45820312 0.3984375 0 0 Z " fill="#BFB79E" transform="translate(529,762)"/>
<path d="M0 0 C2.9719385 1.12451727 5.33440687 2.22293791 8 4 C7.67 4.99 7.34 5.98 7 7 C5.83040013 6.02433888 4.66438823 5.044375 3.5 4.0625 C2.8503125 3.51722656 2.200625 2.97195313 1.53125 2.41015625 C1.0259375 1.94480469 0.520625 1.47945312 0 1 C0 0.67 0 0.34 0 0 Z " fill="#337278" transform="translate(788,616)"/>
<path d="M0 0 C3.37503669 1.1858237 5.64722731 2.27573689 8 5 C7.34 5.66 6.68 6.32 6 7 C4.02 4.69 2.04 2.38 0 0 Z " fill="#337279" transform="translate(781,609)"/>
<path d="M0 0 C0.66 0 1.32 0 2 0 C3.5078125 1.75 3.5078125 1.75 5.125 4 C5.66382813 4.7425 6.20265625 5.485 6.7578125 6.25 C7.16773438 6.8275 7.57765625 7.405 8 8 C6.68 7.67 5.36 7.34 4 7 C4 6.34 4 5.68 4 5 C3.34 5 2.68 5 2 5 C1.34 3.35 0.68 1.7 0 0 Z " fill="#EBE5D8" transform="translate(561,810)"/>
<path d="M0 0 C2.46800047 1.15173355 4.04783565 2.04783565 6 4 C5.625 6.125 5.625 6.125 5 8 C0 2.25 0 2.25 0 0 Z " fill="#D6EBED" transform="translate(1054,762)"/>
<path d="M0 0 C0.99 0.66 1.98 1.32 3 2 C0.03 4.475 0.03 4.475 -3 7 C-2.67 5.35 -2.34 3.7 -2 2 C-1.34 2 -0.68 2 0 2 C0 1.34 0 0.68 0 0 Z " fill="#D1C7B4" transform="translate(660,745)"/>
<path d="M0 0 C1.65 0 3.3 0 5 0 C5.33 1.98 5.66 3.96 6 6 C3.97945196 4.35830472 1.97956942 2.69088222 0 1 C0 0.67 0 0.34 0 0 Z " fill="#D5CEB2" transform="translate(673,739)"/>
<path d="M0 0 C0.99 0.33 1.98 0.66 3 1 C3 1.66 3 2.32 3 3 C4.32 3.66 5.64 4.32 7 5 C6.67 5.66 6.34 6.32 6 7 C4.125 6.875 4.125 6.875 2 6 C0.75 2.9375 0.75 2.9375 0 0 Z " fill="#ABCACF" transform="translate(905,614)"/>
<path d="M0 0 C1.1725131 0.95117134 2.33787015 1.91117009 3.5 2.875 C4.47453125 3.67550781 4.47453125 3.67550781 5.46875 4.4921875 C5.9740625 4.98976563 6.479375 5.48734375 7 6 C7 6.66 7 7.32 7 8 C6.01 7.67 5.02 7.34 4 7 C4 6.34 4 5.68 4 5 C3.34 5 2.68 5 2 5 C1.34 3.35 0.68 1.7 0 0 Z " fill="#F0EDDF" transform="translate(536,784)"/>
<path d="M0 0 C0.66 0 1.32 0 2 0 C1.60196439 2.88575819 1.20990931 3.82189513 -1.0625 5.75 C-1.701875 6.1625 -2.34125 6.575 -3 7 C-3 6.01 -3 5.02 -3 4 C-2.34 4 -1.68 4 -1 4 C-0.67 2.68 -0.34 1.36 0 0 Z " fill="#3C787D" transform="translate(1054,770)"/>
<path d="M0 0 C2.1875 0.3125 2.1875 0.3125 4 1 C1.03 3.475 1.03 3.475 -2 6 C-2.33 5.01 -2.66 4.02 -3 3 C-1.75 1.4375 -1.75 1.4375 0 0 Z " fill="#D3C8B8" transform="translate(665,740)"/>
</svg>
